<svg width="2214" height="1110" viewBox="0 0 2214 1110" fill="none" xmlns="http://www.w3.org/2000/svg">
<path d="M0 547.644C0 386.662 120.301 251.074 280.137 231.906L1858.14 42.6746C2047.42 19.9762 2214 167.774 2214 358.412V762.346C2214 936.069 2074.58 1077.64 1900.88 1080.31L322.883 1104.54C145.367 1107.27 0 964.116 0 786.579V547.644Z" fill="#FFDF69"/>
<mask id="mask0_29_22" style="mask-type:alpha" maskUnits="userSpaceOnUse" x="0" y="40" width="2214" height="1065">
<path d="M0 547.644C0 386.662 120.301 251.074 280.137 231.906L1858.14 42.6746C2047.42 19.9762 2214 167.774 2214 358.412V762.346C2214 936.069 2074.58 1077.64 1900.88 1080.31L322.883 1104.54C145.367 1107.27 0 964.116 0 786.579V547.644Z" fill="#FFDF69"/>
</mask>
<g mask="url(#mask0_29_22)">
<g opacity="0.3">
<path d="M1503.5 -498.496C1797.95 -600.18 2166.49 -549.043 2404.8 -346.794C2642.74 -145.06 2750.44 207.785 2640.57 486.143C2531.22 764.129 2203.41 967.483 2055.65 1170.43C1907.38 1373.75 1938.27 1576.53 1862.28 1719.12C1785.77 1862.09 1602.52 1944 1421.78 1940.19C1241.19 1935.5 1063.48 1845.6 782.083 1768.51C501.203 1691.04 117.377 1627.4 -95.8742 1405.52C-308.237 1183.78 -348.764 804.472 -176.477 562.67C-4.19056 320.868 382.17 217.235 685.607 37.7225C988.156 -141.934 1209.04 -396.812 1503.5 -498.496Z" stroke="#987E3A" stroke-width="6"/>
<path d="M1467.4 -206.288C1694.58 -284.741 1978.92 -245.287 2162.79 -89.2444C2346.36 66.3997 2429.46 338.632 2344.69 553.395C2260.32 767.87 2007.41 924.765 1893.41 1081.35C1779.01 1238.22 1802.85 1394.66 1744.21 1504.68C1685.18 1614.99 1543.8 1678.18 1404.35 1675.24C1265.02 1671.62 1127.91 1602.26 910.805 1542.78C694.097 1483.01 397.961 1433.91 233.431 1262.72C69.5864 1091.65 38.3184 798.996 171.243 612.437C304.168 425.879 602.258 345.923 836.371 207.423C1069.8 68.8114 1240.22 -127.835 1467.4 -206.288Z" stroke="#987E3A" stroke-width="6"/>
<path d="M1435.62 50.9501C1603.58 -7.05154 1813.8 22.1176 1949.74 137.483C2085.46 252.553 2146.89 453.82 2084.22 612.598C2021.85 771.164 1834.86 887.159 1750.58 1002.92C1666 1118.9 1683.62 1234.56 1640.28 1315.9C1596.64 1397.45 1492.11 1444.17 1389.01 1442C1286 1439.32 1184.63 1388.05 1024.12 1344.07C863.905 1299.88 644.967 1263.58 523.326 1137.02C402.193 1010.54 379.076 794.176 477.35 656.25C575.624 518.323 796.007 459.21 969.091 356.814C1141.67 254.336 1267.66 108.952 1435.62 50.9501Z" stroke="#987E3A" stroke-width="6"/>
<path d="M1399.08 346.752C1498.94 312.267 1623.93 329.609 1704.75 398.199C1785.44 466.614 1821.96 586.276 1784.7 680.677C1747.62 774.952 1636.45 843.916 1586.34 912.743C1536.05 981.696 1546.53 1050.46 1520.76 1098.82C1494.81 1147.31 1432.66 1175.09 1371.37 1173.79C1310.12 1172.2 1249.86 1141.72 1154.43 1115.57C1059.17 1089.3 929.001 1067.72 856.681 992.469C784.661 917.271 770.917 788.633 829.345 706.63C887.774 624.626 1018.8 589.481 1121.71 528.602C1224.31 467.674 1299.22 381.236 1399.08 346.752Z" stroke="#987E3A" stroke-width="6"/>
<path d="M1372.8 559.522C1423.67 541.953 1487.35 550.789 1528.52 585.733C1569.63 620.588 1588.24 681.552 1569.26 729.646C1550.37 777.676 1493.73 812.811 1468.2 847.876C1442.58 883.005 1447.92 918.04 1434.79 942.677C1421.57 967.379 1389.91 981.531 1358.68 980.873C1327.48 980.062 1296.77 964.53 1248.16 951.21C1199.63 937.825 1133.31 926.829 1096.46 888.493C1059.77 850.182 1052.77 784.646 1082.54 742.868C1112.3 701.09 1179.06 683.184 1231.49 652.169C1283.76 621.128 1321.92 577.091 1372.8 559.522Z" stroke="#987E3A" stroke-width="6"/>
</g>
</g>
</svg>
